<svg width="1549" height="738" viewBox="0 0 1549 738" fill="none" xmlns="http://www.w3.org/2000/svg">
<path d="M1168.38 79.6684C1318.29 75.5441 1446.35 200.114 1450.8 361.817C1455.25 523.519 1334.23 654.942 1184.32 659.066C1110.08 661.109 1061.64 638.062 1001.29 586.533C970.991 560.659 938.625 528.376 898.72 488.575C897.524 487.381 896.32 486.18 895.109 484.973C860.7 450.655 821.331 411.51 774.505 368.006C810.701 330.869 841.918 297.907 869.36 268.931C878.701 259.068 887.606 249.665 896.12 240.718C936.083 198.721 966.847 167.4 994.915 143.716C1022.56 120.386 1046.53 105.416 1072.32 95.7188C1098.21 85.9888 1128.04 80.7784 1168.38 79.6684Z" stroke="url(#paint0_linear_107_3)" stroke-width="75"/>
<path d="M1168.38 79.6684C1318.29 75.5441 1446.35 200.114 1450.8 361.817C1455.25 523.519 1334.23 654.942 1184.32 659.066C1110.08 661.109 1061.64 638.062 1001.29 586.533C970.991 560.659 938.625 528.376 898.72 488.575C897.524 487.381 896.32 486.18 895.109 484.973C860.7 450.655 821.331 411.51 774.505 368.006C810.701 330.869 841.918 297.907 869.36 268.931C878.701 259.068 887.606 249.665 896.12 240.718C936.083 198.721 966.847 167.4 994.915 143.716C1022.56 120.386 1046.53 105.416 1072.32 95.7188C1098.21 85.9888 1128.04 80.7784 1168.38 79.6684Z" stroke="url(#paint1_linear_107_3)" stroke-width="75"/>
<path d="M381.907 657.414C231.999 661.538 103.936 536.968 99.4875 375.265C95.0387 213.563 216.058 82.14 365.966 78.0157C440.215 75.9729 488.648 99.0204 548.997 150.549C579.3 176.423 611.666 208.706 651.57 248.507C652.767 249.701 653.971 250.902 655.181 252.109C689.591 286.427 728.96 325.572 775.786 369.076C739.59 406.213 708.373 439.175 680.931 468.151C671.589 478.015 662.685 487.417 654.171 496.364C614.208 538.361 583.444 569.682 555.376 593.366C527.727 616.696 503.764 631.666 477.967 641.363C452.083 651.093 422.25 656.304 381.907 657.414Z" stroke="url(#paint2_linear_107_3)" stroke-width="75"/>
<path d="M381.907 657.414C231.999 661.538 103.936 536.968 99.4875 375.265C95.0387 213.563 216.058 82.14 365.966 78.0157C440.215 75.9729 488.648 99.0204 548.997 150.549C579.3 176.423 611.666 208.706 651.57 248.507C652.767 249.701 653.971 250.902 655.181 252.109C689.591 286.427 728.96 325.572 775.786 369.076C739.59 406.213 708.373 439.175 680.931 468.151C671.589 478.015 662.685 487.417 654.171 496.364C614.208 538.361 583.444 569.682 555.376 593.366C527.727 616.696 503.764 631.666 477.967 641.363C452.083 651.093 422.25 656.304 381.907 657.414Z" stroke="url(#paint3_linear_107_3)" stroke-width="75"/>
<defs>
<linearGradient id="paint0_linear_107_3" x1="720.93" y1="381.897" x2="1488.29" y2="360.785" gradientUnits="userSpaceOnUse">
<stop stop-color="#ffffff" stop-opacity="0"/>
<stop offset="1" stop-color="#ffffff" stop-opacity="0.973958"/>
</linearGradient>
<linearGradient id="paint1_linear_107_3" x1="720.93" y1="381.897" x2="1488.29" y2="360.785" gradientUnits="userSpaceOnUse">
<stop/>
<stop offset="0.0001" stop-color="#ffffff" stop-opacity="0.973958"/>
<stop offset="1" stop-color="#ffffff" stop-opacity="0"/>
</linearGradient>
<linearGradient id="paint2_linear_107_3" x1="829.361" y1="355.185" x2="62.0017" y2="376.297" gradientUnits="userSpaceOnUse">
<stop stop-color="#ffffff" stop-opacity="0"/>
<stop offset="1" stop-color="#ffffff" stop-opacity="0.973958"/>
</linearGradient>
<linearGradient id="paint3_linear_107_3" x1="829.361" y1="355.185" x2="62.0017" y2="376.297" gradientUnits="userSpaceOnUse">
<stop/>
<stop offset="0.0001" stop-color="#ffffff" stop-opacity="0.973958"/>
<stop offset="1" stop-color="#ffffff" stop-opacity="0"/>
</linearGradient>
</defs>
</svg>
